<svg width="96" height="96" viewBox="0 0 96 96" fill="none" xmlns="http://www.w3.org/2000/svg">
<g opacity="0.96">
<rect width="96" height="96" rx="48" fill="#2D38A8" fill-opacity="0.1"/>
<path d="M63 31.5H33C32.2044 31.5 31.4413 31.8161 30.8787 32.3787C30.3161 32.9413 30 33.7044 30 34.5V45.5194C30 62.3212 44.2162 67.8956 47.0625 68.8425C47.6704 69.0492 48.3296 69.0492 48.9375 68.8425C51.7875 67.8956 66 62.3212 66 45.5194V34.5C66 33.7044 65.6839 32.9413 65.1213 32.3787C64.5587 31.8161 63.7957 31.5 63 31.5ZM56.5613 44.5612L46.0613 55.0612C45.9219 55.2007 45.7565 55.3114 45.5744 55.3868C45.3923 55.4623 45.1971 55.5012 45 55.5012C44.8029 55.5012 44.6077 55.4623 44.4256 55.3868C44.2435 55.3114 44.0781 55.2007 43.9387 55.0612L39.4387 50.5612C39.1573 50.2798 38.9992 49.898 38.9992 49.5C38.9992 49.102 39.1573 48.7202 39.4387 48.4387C39.7202 48.1573 40.102 47.9992 40.5 47.9992C40.898 47.9992 41.2798 48.1573 41.5613 48.4387L45 51.8775L54.4387 42.4387C54.5781 42.2994 54.7436 42.1888 54.9257 42.1134C55.1077 42.038 55.3029 41.9992 55.5 41.9992C55.6971 41.9992 55.8923 42.038 56.0743 42.1134C56.2564 42.1888 56.4219 42.2994 56.5613 42.4387C56.7006 42.5781 56.8112 42.7436 56.8866 42.9257C56.962 43.1077 57.0008 43.3029 57.0008 43.5C57.0008 43.6971 56.962 43.8923 56.8866 44.0743C56.8112 44.2564 56.7006 44.4219 56.5613 44.5612Z" fill="#2D38A8"/>
</g>
</svg>
